<svg id="svg" xmlns="http://www.w3.org/2000/svg" xmlns:xlink="http://www.w3.org/1999/xlink" width="400" height="302.11480362537765" viewBox="0, 0, 400,302.11480362537765"><g id="svgg"><path id="path0" d="M60.116 60.125 L 0.000 120.251 -0.000 151.737 L -0.000 183.223 59.660 242.669 L 119.319 302.115 205.570 302.115 L 291.821 302.115 316.303 277.655 L 340.785 253.194 340.785 277.655 L 340.785 302.115 370.393 302.115 L 400.000 302.115 400.000 247.563 L 400.000 193.012 378.883 171.732 L 357.767 150.453 312.110 196.073 L 266.453 241.692 206.635 241.692 L 146.816 241.692 101.545 196.410 L 56.275 151.127 100.947 105.925 L 145.619 60.724 218.118 60.573 L 290.616 60.423 260.423 30.211 L 230.230 0.000 175.231 -0.000 L 120.233 -0.000 60.116 60.125 M139.216 122.468 C 124.460 137.318,112.387 150.183,112.387 151.057 C 112.387 151.932,124.460 164.797,139.216 179.647 L 166.045 206.647 206.145 206.647 L 246.245 206.647 272.367 179.533 C 286.735 164.620,298.489 151.806,298.489 151.057 C 298.489 150.309,286.735 137.495,272.367 122.582 L 246.245 95.468 206.145 95.468 L 166.045 95.468 139.216 122.468 " stroke="none" fill="#000000" fill-rule="evenodd"></path></g></svg>